<?xml version="1.0" standalone="no"?>
<!DOCTYPE svg PUBLIC "-//W3C//DTD SVG 20010904//EN"
 "http://www.w3.org/TR/2001/REC-SVG-20010904/DTD/svg10.dtd">
<svg version="1.0" xmlns="http://www.w3.org/2000/svg"
 width="60.000000pt" height="60.000000pt" viewBox="0 0 60.000000 60.000000"
 preserveAspectRatio="xMidYMid meet">

<g transform="translate(0.000000,60.000000) scale(0.100000,-0.100000)"
fill="#000000" stroke="none">
<path d="M219 501 c-26 -27 -29 -36 -29 -95 0 -54 5 -74 26 -107 16 -27 24
-51 22 -72 -3 -29 -8 -34 -62 -53 -68 -24 -106 -56 -106 -90 0 -20 5 -24 33
-24 25 0 39 7 55 30 63 85 197 90 274 9 27 -29 45 -39 68 -39 25 0 30 4 30 24
0 34 -38 66 -106 90 -54 19 -59 24 -62 53 -2 21 6 45 22 72 40 63 34 201 -8
201 -8 0 -19 7 -26 15 -8 9 -30 15 -57 15 -36 0 -50 -6 -74 -29z"/>
<path d="M265 103 c-11 -2 -31 -13 -45 -23 l-25 -20 103 0 c56 0 102 2 102 4
0 2 -11 11 -24 19 -26 17 -80 27 -111 20z"/>
</g>
</svg>
