<?xml version="1.0" standalone="no"?>
<!DOCTYPE svg PUBLIC "-//W3C//DTD SVG 20010904//EN"
 "http://www.w3.org/TR/2001/REC-SVG-20010904/DTD/svg10.dtd">
<svg version="1.0" xmlns="http://www.w3.org/2000/svg"
 width="52.000000pt" height="52.000000pt" viewBox="0 0 52.000000 52.000000"
 preserveAspectRatio="xMidYMid meet">

<g transform="translate(0.000000,52.000000) scale(0.100000,-0.100000)"
fill="#000000" stroke="none">
<path d="M10 488 c0 -13 13 -45 29 -70 23 -36 43 -53 90 -75 61 -28 76 -51 30
-45 -13 2 -43 6 -66 9 -24 3 -43 1 -43 -4 0 -19 47 -53 73 -53 23 0 27 -4 27
-30 0 -17 8 -47 19 -68 10 -20 26 -60 35 -88 11 -34 24 -54 36 -57 40 -10 59
4 76 57 9 28 26 69 37 91 11 22 20 53 19 68 -1 25 2 28 22 23 16 -4 31 2 50
19 38 36 34 48 -16 42 -24 -3 -54 -7 -67 -9 -46 -6 -31 17 30 45 47 22 67 39
90 75 29 46 39 97 18 90 -6 -2 -17 -21 -24 -42 -13 -37 -51 -86 -66 -86 -4 0
-5 25 -2 56 5 46 3 56 -8 52 -8 -2 -15 -15 -17 -29 -10 -97 -33 -119 -122
-119 -89 0 -112 22 -122 119 -2 14 -9 27 -17 29 -11 4 -13 -6 -8 -52 5 -51 4
-55 -12 -46 -22 11 -51 54 -60 88 -9 34 -31 41 -31 10z m200 -263 c15 -18 6
-45 -13 -45 -20 0 -40 27 -33 45 7 19 30 19 46 0z m147 -1 c2 -7 -4 -19 -13
-28 -23 -23 -49 -3 -33 26 11 20 40 21 46 2z m-59 -161 c-4 -22 -57 -30 -69
-11 -15 23 -10 28 32 28 33 0 40 -3 37 -17z"/>
</g>
</svg>
