<?xml version="1.0" standalone="no"?>
<!DOCTYPE svg PUBLIC "-//W3C//DTD SVG 20010904//EN"
 "http://www.w3.org/TR/2001/REC-SVG-20010904/DTD/svg10.dtd">
<svg version="1.0" xmlns="http://www.w3.org/2000/svg"
 width="50.000000pt" height="50.000000pt" viewBox="0 0 50.000000 50.000000"
 preserveAspectRatio="xMidYMid meet">

<g transform="translate(0.000000,50.000000) scale(0.100000,-0.100000)"
fill="#000000" stroke="none">
<path d="M160 451 c-14 -28 -13 -61 3 -61 8 0 21 18 30 40 15 38 14 40 -3 40
-11 0 -24 -9 -30 -19z"/>
<path d="M233 438 c-10 -14 -143 -340 -143 -352 0 -4 25 -18 55 -32 71 -31
156 -33 184 -5 11 11 27 21 37 23 11 2 20 12 23 23 2 11 11 25 20 32 12 8 22
40 31 99 l14 88 -55 49 c-70 63 -148 98 -166 75z m87 -79 c0 -34 -19 -59 -45
-59 -21 0 -25 5 -25 30 0 30 20 49 53 50 11 0 17 -8 17 -21z m91 -20 c33 -23
35 -42 15 -138 -8 -37 -21 -68 -30 -73 -9 -5 -16 -18 -16 -30 0 -16 -5 -19
-25 -16 -19 4 -25 1 -25 -13 0 -15 -8 -19 -39 -19 l-39 0 11 30 c7 17 19 30
29 30 9 0 20 5 24 11 3 6 15 8 27 5 19 -5 19 -4 3 12 -16 16 -18 16 -31 -2
-18 -24 -45 -14 -45 18 0 17 11 34 34 51 24 18 36 37 40 63 7 41 26 92 33 92
3 0 18 -9 34 -21z m-181 -190 c0 -22 -25 -48 -47 -49 -13 0 -18 51 -6 63 3 4
17 7 30 7 17 0 23 -6 23 -21z"/>
<path d="M380 426 c0 -2 7 -9 15 -16 12 -10 15 -10 15 4 0 9 -7 16 -15 16 -8
0 -15 -2 -15 -4z"/>
<path d="M38 146 c-11 -25 -6 -56 10 -56 7 0 32 56 32 73 0 18 -32 4 -42 -17z"/>
</g>
</svg>
