<?xml version="1.0" standalone="no"?>
<!DOCTYPE svg PUBLIC "-//W3C//DTD SVG 20010904//EN"
 "http://www.w3.org/TR/2001/REC-SVG-20010904/DTD/svg10.dtd">
<svg version="1.0" xmlns="http://www.w3.org/2000/svg"
 width="50.000000pt" height="50.000000pt" viewBox="0 0 50.000000 50.000000"
 preserveAspectRatio="xMidYMid meet">

<g transform="translate(0.000000,50.000000) scale(0.100000,-0.100000)"
fill="#000000" stroke="none">
<path d="M130 454 c0 -3 10 -19 21 -36 18 -25 20 -34 10 -54 -15 -34 -15 -34
15 -34 17 0 28 -6 31 -20 3 -11 9 -20 13 -20 4 0 10 9 13 20 4 16 14 20 43 20
l37 0 -23 25 c-23 24 -23 25 -5 45 18 20 18 20 -11 20 -17 0 -36 6 -42 12 -10
10 -15 10 -21 -1 -7 -11 -14 -10 -39 8 -31 21 -42 26 -42 15z"/>
<path d="M390 363 c-27 -11 -40 -31 -70 -110 -48 -124 -39 -223 20 -223 19 0
50 25 50 41 0 5 20 9 45 9 l45 0 0 75 0 75 -75 0 c-83 0 -85 3 -61 62 20 47
40 61 95 69 l46 6 -40 1 c-22 0 -47 -2 -55 -5z m30 -203 c0 -27 -3 -30 -33
-30 -37 0 -57 15 -57 42 0 15 8 18 45 18 43 0 45 -1 45 -30z"/>
<path d="M20 196 l0 -116 68 0 c56 0 69 -3 80 -20 9 -15 22 -20 50 -19 l37 2
-40 6 c-38 6 -40 8 -40 41 0 33 2 35 35 35 32 0 35 -3 40 -35 8 -51 20 -14 20
61 0 46 -3 59 -15 59 -8 0 -15 9 -15 20 0 17 -3 18 -25 8 -22 -10 -28 -9 -40
8 -40 56 -42 57 -99 62 l-56 4 0 -116z"/>
</g>
</svg>
